<svg xmlns="http://www.w3.org/2000/svg" xmlns:xlink="http://www.w3.org/1999/xlink">
<defs>

<symbol id="icon-bin" viewBox="0 0 32 32">
<path d="M7.8,29.2h16.5l1.6-18.1H6.1L7.8,29.2z M19.3,6.1V2.8h-6.6v3.3H4.5v4.9l1.6-1.6h19.8l1.6,1.6V6.1H19.3z M17.6,6.1h-3.3V4.5h3.3V6.1z"/>
</symbol>

<symbol id="icon-edit" viewBox="0 0 32 32">
<path d="M10.681 18.207l-2.209 5.67 5.572-2.307-3.363-3.363zM26.855 6.097l-0.707-0.707c-0.78-0.781-2.047-0.781-2.828 0l-1.414 1.414 3.535 3.536 1.414-1.414c0.782-0.781 0.782-2.048 0-2.829zM10.793 17.918l0.506-0.506 3.535 3.535 9.9-9.9-3.535-3.535 0.707-0.708-11.113 11.114zM23.004 26.004l-17.026 0.006 0.003-17.026 11.921-0.004 1.868-1.98h-14.805c-0.552 0-1 0.447-1 1v19c0 0.553 0.448 1 1 1h19c0.553 0 1-0.447 1-1v-14.058l-2.015 1.977 0.054 11.085z"></path>
<symbol>

<symbol id="icon-file" viewBox="0 0 32 32">
<path d="M20.938 4.031h-13.938v23.938h10v-2h-8v-19.938h10v3h4v11h2v-12.062l-4.062-3.938zM23 22.031h-2v2h-2v2h2v1.938h2v-2h2v-1.938h-2v-2z"></path>
<symbol>

<symbol id="icon-undo" viewBox="0 0 32 32">
<path d="M4.687 11.119l9.287 8.933v-5.412c2.813 0 9.973 0.062 9.973 7.426 0 3.855-2.734 7.072-6.369 7.816 5.842-0.792 10.359-5.747 10.359-11.806 0-11.256-12.026-11.352-13.963-11.352v-4.606l-9.287 9.001z"></path>
<symbol>

<symbol id="icon-text" viewBox="0 0 24 32">
  <path d="M14 8h-10v2h10v-2zM18 2h-18v28h24v-22l-6-6zM22 28h-20v-24h14l6 6v18zM4 24h16v-2h-16v2zM4 20h16v-2h-16v2zM4 16h16v-2h-16v2z"></path>
</symbol>

<symbol id="icon-url" viewBox="0 0 20 20">
  <path d="M7.859 14.691l-0.81 0.805c-0.701 0.695-1.843 0.695-2.545 0-0.336-0.334-0.521-0.779-0.521-1.252s0.186-0.916 0.521-1.252l2.98-2.955c0.617-0.613 1.779-1.515 2.626-0.675 0.389 0.386 1.016 0.384 1.403-0.005 0.385-0.389 0.383-1.017-0.006-1.402-1.438-1.428-3.566-1.164-5.419 0.675l-2.98 2.956c-0.715 0.709-1.108 1.654-1.108 2.658 0 1.006 0.394 1.949 1.108 2.658 0.736 0.73 1.702 1.096 2.669 1.096s1.934-0.365 2.669-1.096l0.811-0.805c0.389-0.385 0.391-1.012 0.005-1.4s-1.014-0.39-1.403-0.006zM16.891 3.207c-1.547-1.534-3.709-1.617-5.139-0.197l-1.009 1.002c-0.389 0.386-0.392 1.013-0.006 1.401 0.386 0.389 1.013 0.391 1.402 0.005l1.010-1.001c0.74-0.736 1.711-0.431 2.346 0.197 0.336 0.335 0.522 0.779 0.522 1.252s-0.186 0.917-0.522 1.251l-3.18 3.154c-1.454 1.441-2.136 0.766-2.427 0.477-0.389-0.386-1.016-0.383-1.401 0.005s-0.384 1.017 0.005 1.401c0.668 0.662 1.43 0.99 2.228 0.99 0.977 0 2.010-0.492 2.993-1.467l3.18-3.153c0.712-0.71 1.107-1.654 1.107-2.658s-0.395-1.949-1.109-2.659z"></path>
</symbol>

<symbol id="icon-f" viewBox="0 0 19 32">
  <path d="M17.125 0.214v4.714h-2.804q-1.536 0-2.071 0.643t-0.536 1.929v3.375h5.232l-0.696 5.286h-4.536v13.554h-5.464v-13.554h-4.554v-5.286h4.554v-3.893q0-3.321 1.857-5.152t4.946-1.83q2.625 0 4.071 0.214z"></path>
</symbol>

<symbol id="icon-close" viewBox="0 0 24 24">
  <path class="path1" d="M19 4q0.43 0 0.715 0.285t0.285 0.715q0 0.422-0.289 0.711l-6.297 6.289 6.297 6.289q0.289 0.289 0.289 0.711 0 0.43-0.285 0.715t-0.715 0.285q-0.422 0-0.711-0.289l-6.289-6.297-6.289 6.297q-0.289 0.289-0.711 0.289-0.43 0-0.715-0.285t-0.285-0.715q0-0.422 0.289-0.711l6.297-6.289-6.297-6.289q-0.289-0.289-0.289-0.711 0-0.43 0.285-0.715t0.715-0.285q0.422 0 0.711 0.289l6.289 6.297 6.289-6.297q0.289-0.289 0.711-0.289z"></path>
</symbol>
</defs>
</svg>
